{"title":"Modern Family S05E18 720p XVID MP3 .AVI [Re-upload]","uid":9980202,"size":633365912,"categoryP":"video","categoryS":"hd___tv_shows","magnet":"?xt=urn:btih:9e88db9e58354422ad3d82f2f986cb8135481295&amp;dn=Modern+Family+S05E18+720p+XVID+MP3+.AVI+%5BRe-upload%5D&amp;tr=udp%3A%2F%2Ftracker.openbittorrent.com%3A80&amp;tr=udp%3A%2F%2Fopen.demonii.com%3A1337&amp;tr=udp%3A%2F%2Ftracker.coppersurfer.tk%3A6969&amp;tr=udp%3A%2F%2Fexodus.desync.com%3A6969","seeders":3,"leechers":0,"uploader":"Danimal1q2w3","files":1,"time":1397731862,"description":"Video\nID                                       : 0\nFormat                                   : MPEG-4 Visual\nFormat profile                           : Simple@L3\nFormat settings, BVOP                    : No\nFormat settings, QPel                    : No\nFormat settings, GMC                     : No warppoints\nFormat settings, Matrix                  : Default (H.263)\nCodec ID                                 : XVID\nCodec ID/Hint                            : XviD\nDuration                                 : 21mn 3s\nBit rate                                 : 3 688 Kbps\nWidth                                    : 1 280 pixels\nHeight                                   : 720 pixels\nDisplay aspect ratio                     : 16:9\nFrame rate                               : 23.976 fps\nColor space                              : YUV\nChroma subsampling                       : 4:2:0\nBit depth                                : 8 bits\nScan type                                : Progressive\nCompression mode                         : Lossy\nBits/(Pixel*Frame)                       : 0.167\nStream size                              : 555 MiB (92%)\nWriting library                          : XviD 63\n\nAudio\nID                                       : 1\nFormat                                   : MPEG Audio\nFormat version                           : Version 1\nFormat profile                           : Layer 3\nMode                                     : Joint stereo\nMode extension                           : MS Stereo\nCodec ID                                 : 55\nCodec ID/Hint                            : MP3\nDuration                                 : 21mn 3s\nBit rate mode                            : Variable\nBit rate                                 : 311 Kbps\nChannel(s)                               : 2 channels\nSampling rate                            : 48.0 KHz\nCompression mode                         : Lossy\nStream size                              : 46.8 MiB (8%)\nAlignment                                : Aligned on interleaves\nInterleave, duration                     : 24 ms (0.58 video frame)\nInterleave, preload duration             : 504 ms\n","torrent":{"xt":"urn:btih:9e88db9e58354422ad3d82f2f986cb8135481295","amp;dn":"Modern+Family+S05E18+720p+XVID+MP3+.AVI+%5BRe-upload%5D","amp;tr":["udp%3A%2F%2Ftracker.openbittorrent.com%3A80","udp%3A%2F%2Fopen.demonii.com%3A1337","udp%3A%2F%2Ftracker.coppersurfer.tk%3A6969","udp%3A%2F%2Fexodus.desync.com%3A6969"],"infoHash":"9e88db9e58354422ad3d82f2f986cb8135481295","infoHashBuffer":{"type":"Buffer","data":[158,136,219,158,88,53,68,34,173,61,130,242,249,134,203,129,53,72,18,149]},"announce":[],"urlList":[]}}